<?xml version="1.0" encoding="UTF-8"?>
<svg xmlns="http://www.w3.org/2000/svg" width="679" height="676">
<path stroke="#000" stroke-width="6" d="M18,655h22m22,0h22m16,0h66m16,0h22m22,0h22m16,0h66m16,0h66m16,0h22m22,0h22m16,0h66m16,0h22m22,0h22M18,643h66m16,0h66m16,0h66m16,0h66m16,0h66m16,0h22m22,0h22m16,0h22m22,0h22m16,0h66M18,631h66m16,0h22m22,0h22m16,0h22m22,0h22m16,0h22m22,0h22m16,0h22m22,0h22m16,0h66m16,0h66m16,0h22m22,0h22M18,619h22m22,0h22m16,0h66m16,0h22m22,0h22m16,0h22m22,0h22m16,0h22m22,0h22m16,0h66m16,0h22m22,0h22m16,0h66M18,607h66m16,0h66m16,0h66m16,0h66m16,0h66m16,0h22m22,0h22m16,0h66m16,0h22m22,0h22M18,595h66m16,0h22m22,0h22m16,0h66m16,0h22m22,0h22m16,0h66m16,0h22m22,0h22m16,0h22m22,0h22m16,0h66M18,573h66m16,0h22m22,0h22m16,0h66m16,0h22m22,0h22m16,0h22m22,0h22m16,0h66m16,0h66m16,0h22m22,0h22M18,561h22m22,0h22m16,0h66m16,0h22m22,0h22m16,0h22m22,0h22m16,0h22m22,0h22m16,0h66m16,0h22m22,0h22m16,0h22m22,0h22M18,549h66m16,0h66m16,0h22m22,0h22m16,0h66m16,0h66m16,0h22m22,0h22m16,0h66m16,0h66M18,537h66m16,0h66m16,0h66m16,0h22m22,0h22m16,0h22m22,0h22m16,0h66m16,0h66m16,0h66M18,525h66m16,0h22m22,0h22m16,0h22m22,0h22m16,0h22m22,0h22m16,0h66m16,0h22m22,0h22m16,0h22m22,0h22m16,0h22m22,0h22M18,513h22m22,0h22m16,0h66m16,0h22m22,0h22m16,0h66m16,0h66m16,0h22m22,0h22m16,0h22m22,0h22m16,0h66M18,491h66m16,0h66m16,0h66m16,0h22m22,0h22m16,0h22m22,0h22m16,0h22m22,0h22m16,0h22m22,0h22m16,0h22m22,0h22M18,479h66m16,0h22m22,0h22m16,0h66m16,0h66m16,0h22m22,0h22m16,0h66m16,0h66m16,0h66M18,467h22m22,0h22m16,0h22m22,0h22m16,0h66m16,0h66m16,0h22m22,0h22m16,0h66m16,0h22m22,0h22m16,0h66M18,455h22m22,0h22m16,0h22m22,0h22m16,0h66m16,0h66m16,0h66m16,0h22m22,0h22m16,0h66m16,0h22m22,0h22M18,443h22m22,0h22m16,0h66m16,0h66m16,0h66m16,0h66m16,0h22m22,0h22m16,0h66m16,0h66M18,431h66m16,0h66m16,0h22m22,0h22m16,0h66m16,0h22m22,0h22m16,0h22m22,0h22m16,0h22m22,0h22m16,0h22m22,0h22M18,409h22m22,0h22m16,0h66m16,0h22m22,0h22m16,0h66m16,0h66m16,0h66m16,0h22m22,0h22m16,0h22m22,0h22M18,397h22m22,0h22m16,0h66m16,0h22m22,0h22m16,0h22m22,0h22m16,0h22m22,0h22m16,0h66m16,0h22m22,0h22m16,0h66M18,385h66m16,0h66m16,0h22m22,0h22m16,0h66m16,0h66m16,0h22m22,0h22m16,0h66m16,0h22m22,0h22M18,373h66m16,0h66m16,0h66m16,0h22m22,0h22m16,0h22m22,0h22m16,0h66m16,0h22m22,0h22m16,0h66M18,361h66m16,0h22m22,0h22m16,0h22m22,0h22m16,0h22m22,0h22m16,0h66m16,0h22m22,0h22m16,0h66m16,0h22m22,0h22M18,349h66m16,0h22m22,0h22m16,0h66m16,0h22m22,0h22m16,0h66m16,0h66m16,0h22m22,0h22m16,0h22m22,0h22M18,327h66m16,0h66m16,0h66m16,0h22m22,0h22m16,0h22m22,0h22m16,0h66m16,0h22m22,0h22m16,0h22m22,0h22M18,315h22m22,0h22m16,0h66m16,0h22m22,0h22m16,0h66m16,0h66m16,0h22m22,0h22m16,0h22m22,0h22m16,0h66M18,303h22m22,0h22m16,0h66m16,0h22m22,0h22m16,0h66m16,0h22m22,0h22m16,0h66m16,0h66m16,0h66M18,291h66m16,0h22m22,0h22m16,0h22m22,0h22m16,0h66m16,0h22m22,0h22m16,0h66m16,0h66m16,0h66M18,279h66m16,0h22m22,0h22m16,0h22m22,0h22m16,0h66m16,0h66m16,0h22m22,0h22m16,0h66m16,0h22m22,0h22M18,267h66m16,0h66m16,0h66m16,0h22m22,0h22m16,0h22m22,0h22m16,0h66m16,0h22m22,0h22m16,0h22m22,0h22M18,245h66m16,0h22m22,0h22m16,0h66m16,0h22m22,0h22m16,0h66m16,0h66m16,0h22m22,0h22m16,0h66M18,233h22m22,0h22m16,0h66m16,0h66m16,0h22m22,0h22m16,0h22m22,0h22m16,0h22m22,0h22m16,0h22m22,0h22m16,0h22m22,0h22M18,221h22m22,0h22m16,0h66m16,0h22m22,0h22m16,0h22m22,0h22m16,0h22m22,0h22m16,0h66m16,0h22m22,0h22m16,0h22m22,0h22M18,209h66m16,0h22m22,0h22m16,0h22m22,0h22m16,0h22m22,0h22m16,0h66m16,0h22m22,0h22m16,0h22m22,0h22m16,0h22m22,0h22M18,197h66m16,0h22m22,0h22m16,0h22m22,0h22m16,0h66m16,0h22m22,0h22m16,0h22m22,0h22m16,0h22m22,0h22m16,0h22m22,0h22M18,185h22m22,0h22m16,0h66m16,0h22m22,0h22m16,0h66m16,0h66m16,0h66m16,0h66m16,0h22m22,0h22M18,163h66m16,0h66m16,0h66m16,0h22m22,0h22m16,0h66m16,0h66m16,0h22m22,0h22m16,0h22m22,0h22M18,151h66m16,0h66m16,0h66m16,0h22m22,0h22m16,0h22m22,0h22m16,0h66m16,0h22m22,0h22m16,0h22m22,0h22M18,139h66m16,0h22m22,0h22m16,0h66m16,0h22m22,0h22m16,0h66m16,0h66m16,0h66m16,0h22m22,0h22M18,127h22m22,0h22m16,0h66m16,0h22m22,0h22m16,0h66m16,0h66m16,0h66m16,0h22m22,0h22m16,0h66M18,115h66m16,0h66m16,0h22m22,0h22m16,0h66m16,0h66m16,0h22m22,0h22m16,0h22m22,0h22m16,0h22m22,0h22M18,103h66m16,0h66m16,0h22m22,0h22m16,0h66m16,0h66m16,0h66m16,0h22m22,0h22m16,0h22m22,0h22M18,81h66m16,0h22m22,0h22m16,0h66m16,0h22m22,0h22m16,0h66m16,0h22m22,0h22m16,0h22m22,0h22m16,0h22m22,0h22M18,69h66m16,0h22m22,0h22m16,0h22m22,0h22m16,0h66m16,0h66m16,0h66m16,0h66m16,0h22m22,0h22M18,57h66m16,0h22m22,0h22m16,0h22m22,0h22m16,0h22m22,0h22m16,0h66m16,0h22m22,0h22m16,0h22m22,0h22m16,0h22m22,0h22M18,45h66m16,0h22m22,0h22m16,0h22m22,0h22m16,0h22m22,0h22m16,0h22m22,0h22m16,0h66m16,0h22m22,0h22m16,0h22m22,0h22M18,33h66m16,0h22m22,0h22m16,0h66m16,0h22m22,0h22m16,0h66m16,0h66m16,0h22m22,0h22m16,0h66M18,21h66m16,0h22m22,0h22m16,0h22m22,0h22m16,0h66m16,0h22m22,0h22m16,0h66m16,0h22m22,0h22m16,0h22m22,0h22"/>
</svg>